<svg xmlns="http://www.w3.org/2000/svg" version="1.1" xmlns:xlink="http://www.w3.org/1999/xlink" xmlns:svgjs="http://svgjs.dev/svgjs" viewBox="0 0 800 800"><defs><radialGradient id="ccclaymoji-grad-dark" r="93%" cx="20%" cy="20%">
      <stop offset="70%" stop-color="hsl(341, 100%, 85%)" stop-opacity="0"></stop>
      <stop offset="97%" stop-color="#cb839a" stop-opacity="1"></stop>
    </radialGradient><radialGradient id="ccclaymoji-grad-light" r="65%" cx="28%" cy="20%">
    <stop offset="0%" stop-color="#ffe6fe" stop-opacity="0.75"></stop>
    <stop offset="100%" stop-color="hsl(341, 100%, 85%)" stop-opacity="0"></stop>
  </radialGradient><filter id="ccclaymoji-blur" x="-100%" y="-100%" width="400%" height="400%" filterUnits="objectBoundingBox" primitiveUnits="userSpaceOnUse" color-interpolation-filters="sRGB">
	<feGaussianBlur stdDeviation="28" x="0%" y="0%" width="100%" height="100%" in="SourceGraphic" edgeMode="none" result="blur"></feGaussianBlur></filter><filter id="inner-blur" x="-100%" y="-100%" width="400%" height="400%" filterUnits="objectBoundingBox" primitiveUnits="userSpaceOnUse" color-interpolation-filters="sRGB">
	<feGaussianBlur stdDeviation="2" x="0%" y="0%" width="100%" height="100%" in="SourceGraphic" edgeMode="none" result="blur"></feGaussianBlur></filter><filter id="eye-shadow" x="-100%" y="-100%" width="400%" height="400%" filterUnits="objectBoundingBox" primitiveUnits="userSpaceOnUse" color-interpolation-filters="sRGB">
	<feDropShadow stdDeviation="10" dx="10" dy="10" flood-color="#000000" flood-opacity="0.2" x="0%" y="0%" width="100%" height="100%" result="dropShadow"></feDropShadow>
</filter><linearGradient gradientTransform="rotate(-25)" id="eye-light" x1="50%" y1="0%" x2="50%" y2="100%">
      <stop offset="20%" stop-color="#555555" stop-opacity="1"></stop>
      <stop offset="100%" stop-color="black" stop-opacity="0"></stop>
    </linearGradient><linearGradient id="mouth-light" x1="50%" y1="0%" x2="50%" y2="100%">
    <stop offset="0%" stop-color="#ffffff" stop-opacity="1"></stop>
    <stop offset="100%" stop-color="hsla(0, 0%, 100%, 1.00)" stop-opacity="0"></stop>
  </linearGradient><filter id="mouth-shadow" x="-100%" y="-100%" width="400%" height="400%" filterUnits="objectBoundingBox" primitiveUnits="userSpaceOnUse" color-interpolation-filters="sRGB">
	<feDropShadow stdDeviation="10" dx="10" dy="10" flood-color="#cccccc" flood-opacity="0.2" x="0%" y="0%" width="100%" height="100%" result="dropShadow"></feDropShadow>
</filter></defs><g stroke-linecap="round" transform="rotate(15, 400, 400)"><path d="M730.5 432.9999868387804C730.5 629.7042590759771 605.7042722371967 789.1630596150608 409 789.1630596150608C212.29659433962263 789.1630596150608 87.5 629.7042590759771 87.5 432.9999868387804C87.5 236.29658117840296 212.29659433962263 76.8369140625 409 76.8369140625C605.7042722371967 76.8369140625 730.5 236.29658117840296 730.5 432.9999868387804Z " fill="#cb839a" opacity="0.25" filter="url(#ccclaymoji-blur)"></path><path d="M721.5 400.0000034777867C721.5 607.9124963552797 607.9124928774929 703.1809151586984 400 703.1809151586984C192.08842307692308 703.1809151586984 78.5 607.9124963552797 78.5 400.0000034777867C78.5 192.08842655470977 192.08842307692308 96.819091796875 400 96.819091796875C607.9124928774929 96.819091796875 721.5 192.08842655470977 721.5 400.0000034777867Z " fill="hsl(341, 100%, 85%)"></path><path d="M721.5 400.0000034777867C721.5 607.9124963552797 607.9124928774929 703.1809151586984 400 703.1809151586984C192.08842307692308 703.1809151586984 78.5 607.9124963552797 78.5 400.0000034777867C78.5 192.08842655470977 192.08842307692308 96.819091796875 400 96.819091796875C607.9124928774929 96.819091796875 721.5 192.08842655470977 721.5 400.0000034777867Z " fill="url(#ccclaymoji-grad-dark)"></path><path d="M721.5 400.0000034777867C721.5 607.9124963552797 607.9124928774929 703.1809151586984 400 703.1809151586984C192.08842307692308 703.1809151586984 78.5 607.9124963552797 78.5 400.0000034777867C78.5 192.08842655470977 192.08842307692308 96.819091796875 400 96.819091796875C607.9124928774929 96.819091796875 721.5 192.08842655470977 721.5 400.0000034777867Z " fill="url(#ccclaymoji-grad-light)"></path><ellipse rx="25" ry="23" cx="262" cy="428" fill="black" filter="url(#eye-shadow)"></ellipse><ellipse rx="25" ry="23" cx="262" cy="428" fill="url(#eye-light)" filter="url(#inner-blur)"></ellipse><ellipse rx="23.5" ry="25" cx="539" cy="427" fill="black" filter="url(#eye-shadow)"></ellipse><ellipse rx="23.5" ry="25" cx="539" cy="427" fill="url(#eye-light)" filter="url(#inner-blur)"></ellipse><path d="M249 478.75Q390 523.75 535 478.75 " stroke-width="50" stroke="hsla(0, 0%, 100%, 1.00)" fill="none" filter="url(#mouth-shadow)"></path><path d="M249 478.75Q390 523.75 535 478.75 " stroke-width="16.666666666666668" stroke="url(#mouth-light)" fill="none" filter="url(#inner-blur)"></path></g></svg>